<svg id="Layer_2" data-name="Layer 2" xmlns="http://www.w3.org/2000/svg" viewBox="0 0 222.9 58.98"><defs><style>.cls-1{fill:#e64c3c;}.cls-2{fill:#2c3e50;}</style></defs><path class="cls-1" d="M179.18,45.56l1.64.32.19,1,.13.67,1.64.32.32,1.64,1.64.32.32,1.64,37.22-37.22s2.21-2.21-1.71-6.13-6.13-1.71-6.13-1.71L177.22,43.6l1.64.32Z"/><polygon class="cls-2" points="183.24 51.3 181.61 50.97 181.28 49.34 179.65 49.01 179.46 48.04 179.32 47.38 177.69 47.05 177.36 45.42 175.98 45.14 172.55 56.11 183.52 52.67 183.24 51.3"/><path class="cls-1" d="M112.68,43.27l-5.15-.85c2.07-7.14,4.12-14.2,6.25-21.57l-5.34,2.53c-.33-2.35-.65-4.65-1-7.14l8-1.3L118.59,4.2l7.37.73C124.9,8,123.88,11,122.86,14c2.1-.1,4.12-.23,6.13-.28a12.77,12.77,0,0,1,2.71.24c2.77.56,4.08,2.29,4.06,5.41a56.65,56.65,0,0,1-2.49,14.21c-.73,2.68-1.56,5.34-2.38,8.16l-12.77-3.34c.61-.33.83-.5,1.08-.59a26.6,26.6,0,0,1,3.49-1.26,4.87,4.87,0,0,0,3.91-3.76q1.88-6.54,3.74-13.08a4.93,4.93,0,0,0,.1-.85c.19-2.36-.46-2.94-2.91-2.42-1.67.36-3.34.86-5,1.2-.87.17-1.16.64-1.42,1.39q-3.9,11.34-7.85,22.66C113.09,42.2,112.9,42.67,112.68,43.27Z"/><path class="cls-1" d="M77.78,41.47l-5.55-1C76.72,27,81.19,13.55,85.7,0l7.56,1.35C92.62,3.11,92,4.84,91.37,6.57c-1,2.61-2,5.22-3.05,7.81-.3.75-.15,1,.5,1.34,4.93,2.26,9.83,4.57,14.74,6.88.3.14.59.3,1,.52L98.42,30.4l-10.86-14C84.26,24.85,81.05,33.1,77.78,41.47Z"/><path class="cls-1" d="M31.41,2.33l6.38,4.4c-.26.37-.46.68-.69,1q-6.76,8.67-13.55,17.34A8.35,8.35,0,0,1,22,26.51Q11.81,34.28,1.54,42a13.28,13.28,0,0,1-1.32.76L0,42.38c.43-.47.86-.94,1.3-1.4q8.42-8.64,16.82-17.29a11.11,11.11,0,0,0,1.42-1.87Q25.11,12.7,30.63,3.56C30.85,3.19,31.09,2.84,31.41,2.33Z"/><path class="cls-1" d="M191.55,4.28c-1.18,3.61-2.33,7.1-3.56,10.85l7.3.59,0,.45a5.59,5.59,0,0,1-.92.32c-2,.34-4.08.71-6.12,1a1.55,1.55,0,0,0-1.49,1.27c-1.79,5.42-3.63,10.84-5.39,16.27a2.91,2.91,0,0,1-1.83,2.06c-4.46,1.85-8.89,3.81-13.33,5.73-.36.16-.75.27-1.12.4l-.16-.25c.32-.31.64-.62,1-.92,3-2.74,6-5.46,9-8.24a5,5,0,0,0,1.29-2.11c1.09-3.81,2.08-7.63,3.1-11.44l.38-1.43L168.45,20.5c.36-2.55.71-5,1.09-7.69l11.3,1.34,2.91-10.86Z"/><path class="cls-1" d="M157.27,4.88h7.54c-1.82,8-3.61,15.81-5.45,23.9l9.53-.72.08.44L152.3,37.67C154,26.61,155.61,15.82,157.27,4.88Z"/><path class="cls-1" d="M74.29,20.27c-.92.24-1.85.5-2.78.71L54.86,24.67l-14,3c-1.14.25-2.28.59-3.42.77-.37.06-1-.15-1-.41-.66-2.61-1.23-5.25-1.88-8.12l39.74-.2Z"/><path class="cls-1" d="M140.94,28.55c-.61-5.67-1.2-11.16-1.83-17,.57.29.91.35,1.07.55,3,4,6,8.06,9.07,12.24Z"/><path class="cls-2" d="M50.17,57.12v1.73H45.5V57.12h1.66V46.05H45.87V44.33h3l7.29,11.4V46.05H54.84V44.33h4.29v1.72H57.85v12.8H56.16L48.89,47.5v9.62Z"/><path class="cls-2" d="M64.9,54.16A4.83,4.83,0,1,1,69.72,59,4.83,4.83,0,0,1,64.9,54.16Zm1.77,0a3.05,3.05,0,1,0,3-3.07A3.06,3.06,0,0,0,66.67,54.16Z"/><path class="cls-2" d="M81.83,51.17H80.61V49.44h1.22c0-1.53.06-2.75.06-2.86v-.23l1.73,0,0,.22,0,2.83h3.51v1.73H83.55c0,2,0,3.31,0,3.94a2.19,2.19,0,0,0,2.09,2.14h1.75V59H85.69a3.85,3.85,0,0,1-3.8-3.73C81.83,54.58,81.81,53.2,81.83,51.17Z"/><path class="cls-2" d="M93.59,54.15a4.84,4.84,0,1,1,9.68,0,5.29,5.29,0,0,1,0,.54l0,.21H95.47a3.05,3.05,0,0,0,5.46,1l.13-.19,1.47,1-.13.18a4.83,4.83,0,0,1-8.81-2.74Zm2-1h5.76a3.06,3.06,0,0,0-5.76,0Z"/><path class="cls-2" d="M115.25,57.12v1.73h-5V57.12h1.66V46.05h-1.28V44.33h3v4.49l5.48-4.49h2.73l-6,4.9,7,9.62h-2.15l-6.19-8.51-.87.72v6.06Z"/><path class="cls-2" d="M128.11,54.28a4.71,4.71,0,0,1,4.71-4.71,4.08,4.08,0,0,1,3,1.2l0-1.33h1.73v7.68h.64v1.73H135.8l0-1.09a4.36,4.36,0,0,1-3,1.21A4.71,4.71,0,0,1,128.11,54.28Zm1.74,0a3,3,0,0,0,3,3,2.93,2.93,0,0,0,3.11-2.58l0-.41,0-.45a3.07,3.07,0,0,0-6.08.47Z"/><path class="cls-2" d="M145.61,58.85V46.05H145V44.33h2.37v9.53L151,49.44h2.24l-3,3.58,3.9,5.83h-2.07l-3-4.48-1.77,2.15v2.33Z"/><path class="cls-2" d="M160.29,54.15a4.84,4.84,0,0,1,9.68,0,5.29,5.29,0,0,1,0,.54l0,.21h-7.74a3.05,3.05,0,0,0,5.46,1l.13-.19,1.47,1-.13.18a4.83,4.83,0,0,1-8.81-2.74Zm2-1H168a3.07,3.07,0,0,0-5.77,0Z"/></svg>