<svg id="Layer_2" data-name="Layer 2" xmlns="http://www.w3.org/2000/svg" viewBox="0 0 104.36 104.36"><defs><style>.cls-1{fill:#e64c3c;}.cls-2{fill:#edf0f1;}</style></defs><rect class="cls-1" width="104.36" height="104.36" rx="12.04"/><path class="cls-2" d="M19.63,94.56v1H17v-1h.94V88.3H17.2v-1h1.67L23,93.77V88.3h-.72v-1h2.42v1H24v7.24H23L18.9,89.12v5.44Z"/><path class="cls-2" d="M28,92.89a2.73,2.73,0,1,1,2.72,2.72A2.73,2.73,0,0,1,28,92.89Zm1,0a1.73,1.73,0,0,0,3.45,0,1.73,1.73,0,1,0-3.45,0Z"/><path class="cls-2" d="M37.53,91.2h-.69v-1h.69c0-.87,0-1.56,0-1.62v-.13l1,0v.13l0,1.6h2v1h-2c0,1.12,0,1.87,0,2.22a1.25,1.25,0,0,0,1.19,1.22h1v1h-1a2.18,2.18,0,0,1-2.16-2.1C37.53,93.12,37.52,92.35,37.53,91.2Z"/><path class="cls-2" d="M44.18,92.88a2.74,2.74,0,1,1,5.47,0c0,.09,0,.2,0,.31v.11H45.25a1.72,1.72,0,0,0,3.08.57l.08-.11.83.57-.08.1a2.73,2.73,0,0,1-5-1.55Zm1.11-.59h3.26a1.73,1.73,0,0,0-1.63-1.14A1.7,1.7,0,0,0,45.29,92.29Z"/><path class="cls-2" d="M56.43,94.56v1H53.58v-1h.93V88.3h-.72v-1h1.7v2.53l3.1-2.53h1.55L56.75,90.1l4,5.44H59.49L56,90.73l-.49.4v3.43Z"/><path class="cls-2" d="M63.71,93a2.66,2.66,0,0,1,2.66-2.66,2.27,2.27,0,0,1,1.69.68v-.75h1v4.34h.36v1H68.05v-.62a2.42,2.42,0,0,1-1.69.68A2.66,2.66,0,0,1,63.71,93Zm1,0a1.69,1.69,0,0,0,1.68,1.69,1.65,1.65,0,0,0,1.75-1.46l0-.24,0-.25a1.73,1.73,0,0,0-3.43.26Z"/><path class="cls-2" d="M73.6,95.54V88.3h-.36v-1h1.34v5.39l2-2.5h1.26l-1.67,2,2.21,3.3H77.25L75.58,93l-1,1.21v1.32Z"/><path class="cls-2" d="M81.9,92.88a2.74,2.74,0,1,1,5.47,0c0,.09,0,.2,0,.31v.11H83a1.72,1.72,0,0,0,1.68,1.3,1.7,1.7,0,0,0,1.41-.73l.08-.11.83.57-.08.1a2.73,2.73,0,0,1-5-1.55ZM83,92.29h3.26a1.73,1.73,0,0,0-1.63-1.14A1.7,1.7,0,0,0,83,92.29Z"/><path class="cls-2" d="M70.63,39.45l-4-.72C69.73,29,72.87,19.18,76,9.34l5.49,1c-.44,1.28-.86,2.54-1.32,3.79-.7,1.9-1.41,3.79-2.15,5.68-.21.54-.1.75.37,1,3.6,1.64,7.18,3.33,10.76,5,.22.1.43.22.74.38l-4.41,5.29-8-10.18C75.2,27.39,72.93,33.38,70.63,39.45Z"/><path class="cls-2" d="M36.64,11l4.66,3.2c-.18.27-.33.49-.49.71q-4.85,6.3-9.7,12.59A5.42,5.42,0,0,1,30,28.59L15.27,39.84a9,9,0,0,1-.95.55l-.17-.28c.31-.33.62-.68.94-1L27.16,26.54a7.92,7.92,0,0,0,1-1.36c2.64-4.41,5.26-8.83,7.9-13.26C36.23,11.66,36.41,11.4,36.64,11Z"/><path class="cls-2" d="M67.92,24.06c-.67.17-1.34.36-2,.51q-6,1.35-12.06,2.68c-3.37.75-6.74,1.47-10.11,2.21-.83.18-1.66.43-2.48.56-.27.05-.71-.11-.77-.3-.5-1.89-.94-3.81-1.43-5.89l28.86-.15Z"/><path class="cls-2" d="M17.23,74.82l-4.69-.77L18,54.4l-4.84,2.3c-.32-2.13-.64-4.23-1-6.49L19.47,49c.9-3.19,1.8-6.41,2.75-9.78l6.71.67L26.2,48.2C28.11,48.11,30,48,31.78,48a11.19,11.19,0,0,1,2.47.22c2.53.5,3.74,2.08,3.75,4.93A51.2,51.2,0,0,1,35.89,66c-.64,2.44-1.37,4.86-2.09,7.43l-11.66-3c.55-.3.75-.44,1-.53a23.06,23.06,0,0,1,3.16-1.14,4.4,4.4,0,0,0,3.52-3.43c1.09-4,2.19-7.94,3.27-11.91a3.94,3.94,0,0,0,.08-.77c.16-2.15-.44-2.68-2.67-2.2-1.52.32-3,.78-4.55,1.08-.79.16-1.05.59-1.28,1.28-2.28,6.87-4.6,13.75-6.91,20.63C17.6,73.84,17.43,74.27,17.23,74.82Z"/><path class="cls-2" d="M88.64,39.32c-1,3.28-2,6.46-3.13,9.88l6.66.53,0,.41a4.56,4.56,0,0,1-.83.29c-1.86.31-3.71.65-5.56.88a1.4,1.4,0,0,0-1.35,1.16c-1.57,4.93-3.19,9.86-4.74,14.8A2.57,2.57,0,0,1,78,69.16c-4,1.68-8,3.47-12.07,5.21-.33.14-.68.24-1,.36l-.14-.22c.29-.28.57-.57.87-.84,2.71-2.5,5.44-5,8.11-7.51a4.52,4.52,0,0,0,1.16-1.91c1-3.47,1.8-7,2.69-10.42l.34-1.3L67.78,54.09c.3-2.33.59-4.57.91-7L79,48.31l2.53-9.9Z"/><path class="cls-2" d="M57.44,39.87l6.86,0c-1.57,7.25-3.12,14.4-4.72,21.76L68.26,61l.07.4L53.26,69.71C54.67,59.65,56,49.83,57.44,39.87Z"/><path class="cls-2" d="M42.81,61.41C42.2,56.25,41.61,51.25,41,45.9c.53.26.84.32,1,.5,2.77,3.66,5.53,7.34,8.39,11.15Z"/></svg>